<svg xmlns="http://www.w3.org/2000/svg" width="407.015" height="60" viewBox="0 0 407.015 60">
    <defs>
        <clipPath id="0icl2nttia">
            <path data-name="사각형 30" style="fill:none" d="M0 0h407.015v60H0z"/>
        </clipPath>
    </defs>
    <g data-name="그룹 64">
        <g data-name="그룹 63" style="clip-path:url(#0icl2nttia)">
            <path data-name="패스 49" d="M7.443 30.16a3.471 3.471 0 0 1-.029-1.471A2.308 2.308 0 0 1 9.977 26.8a2.392 2.392 0 0 1 2.6 2.543v1.733h6.985v-1.964c0-6.091-5.492-7.062-9.451-7.062-4.974 0-9.038 1.65-9.782 6.223a9.67 9.67 0 0 0 .056 3.775c1.212 5.725 11.164 7.38 12.612 11a3.615 3.615 0 0 1 .054 2.067c-.23.942-.861 1.891-2.735 1.891a2.5 2.5 0 0 1-2.8-2.549l-.01-2.695H0v2.141c0 6.261 4.916 8.144 10.179 8.144 5.059 0 9.214-1.725 9.892-6.411a13.9 13.9 0 0 0-.029-4.583c-1.182-5.877-11.8-7.618-12.6-10.9m91.068.069a3.749 3.749 0 0 1-.024-1.448 2.3 2.3 0 0 1 2.537-1.874 2.363 2.363 0 0 1 2.565 2.521v1.712h6.9V29.19c0-6.033-5.41-6.981-9.326-6.981-4.933 0-8.961 1.626-9.7 6.165a9.351 9.351 0 0 0 .067 3.732c1.2 5.66 11.054 7.3 12.484 10.882a3.779 3.779 0 0 1 .051 2.052c-.214.931-.841 1.869-2.7 1.869a2.479 2.479 0 0 1-2.78-2.509v-2.688h-7.433v2.137c0 6.189 4.848 8.057 10.07 8.057 5 0 9.131-1.709 9.795-6.342a13.639 13.639 0 0 0-.05-4.54c-1.158-5.806-11.661-7.552-12.456-10.793m63.584 15.257L155.5 22.942h-10.391v27.71h6.874l-.4-23.266 7.082 23.266h9.966v-27.71h-6.919zM29.979 22.942l-5.187 28h7.564l3.909-25.923 3.815 25.923h7.512l-5.165-28zm42.3 0-3.537 21.889-3.53-21.889H53.787l-.605 28h7l.189-25.923 4.815 25.923h7.1l4.82-25.923.19 25.923h7.016l-.627-28zm65.07 0h-7.082v20.716a4.922 4.922 0 0 1-.063 1.064 2.784 2.784 0 0 1-5.361 0 4.581 4.581 0 0 1-.071-1.064V22.942h-7.08v20.072a23.61 23.61 0 0 0 .062 1.852c.489 5.23 4.612 6.929 9.759 6.929s9.278-1.7 9.776-6.929a14.711 14.711 0 0 0 .06-1.852zm48.626 12.284v4.084h2.87v4.052a5.093 5.093 0 0 1-.073 1.065 3.025 3.025 0 0 1-5.722 0 6.992 6.992 0 0 1-.073-1.065v-12.8a5.729 5.729 0 0 1 .127-1.322 2.936 2.936 0 0 1 5.583 0 7.345 7.345 0 0 1 .085 1.08v1.554h7.053v-.918a16.763 16.763 0 0 0-.054-1.853c-.53-5.252-4.858-6.914-9.821-6.914s-9.212 1.677-9.83 6.914c-.055.479-.141 1.341-.141 1.853v11.773a15.979 15.979 0 0 0 .112 1.847c.46 5.108 4.887 6.918 9.839 6.918 4.982 0 9.379-1.81 9.847-6.918.084-.937.092-1.334.1-1.847v-7.5z" transform="translate(0 -7.05)" style="fill:#1428a0"/>
            <path data-name="사각형 29" d="M225.885 0h1.201v60h-1.201z"/>
            <path data-name="패스 50" d="M257.008 15.997h9.931a10.52 10.52 0 0 1 4.171.813 10.369 10.369 0 0 1 3.3 2.205 10.146 10.146 0 0 1 2.186 3.278 10.289 10.289 0 0 1 .795 4.033 10.441 10.441 0 0 1-.795 4.052 10.088 10.088 0 0 1-2.186 3.3 10.271 10.271 0 0 1-3.318 2.2 10.635 10.635 0 0 1-4.19.815h-4.488v8.3h-5.4zm5.4 5v10.692h4.131a5.574 5.574 0 0 0 2.186-.419 5.065 5.065 0 0 0 1.707-1.15 5.306 5.306 0 0 0 1.112-1.71 5.661 5.661 0 0 0 0-4.17 5.082 5.082 0 0 0-1.112-1.689 5.28 5.28 0 0 0-1.707-1.132 5.573 5.573 0 0 0-2.186-.417z"/>
            <path data-name="패스 51" d="M290.265 45.472a11.158 11.158 0 0 1-4.153-.814 11.412 11.412 0 0 1-3.674-2.36 11.688 11.688 0 0 1-2.622-3.793 12.5 12.5 0 0 1-.993-5.1 12.829 12.829 0 0 1 .972-5.145 11.59 11.59 0 0 1 2.584-3.794 11.144 11.144 0 0 1 3.674-2.364 11.611 11.611 0 0 1 4.291-.814 10.273 10.273 0 0 1 4.251.874 8.907 8.907 0 0 1 3.216 2.383v-2.789h5.365v23.242h-5.365v-3.02a8.787 8.787 0 0 1-3.257 2.561 9.948 9.948 0 0 1-4.289.933m.872-4.926a6.909 6.909 0 0 0 2.763-.555 6.392 6.392 0 0 0 2.2-1.549 7.616 7.616 0 0 0 1.45-2.305 7.367 7.367 0 0 0 .537-2.82 7.273 7.273 0 0 0-.537-2.781 7.36 7.36 0 0 0-1.45-2.284 6.539 6.539 0 0 0-2.2-1.529 7.176 7.176 0 0 0-5.542 0 7.2 7.2 0 0 0-2.226 1.509 6.831 6.831 0 0 0-1.49 2.265 7.41 7.41 0 0 0-.535 2.821 7.556 7.556 0 0 0 .535 2.84 6.953 6.953 0 0 0 3.716 3.834 6.847 6.847 0 0 0 2.779.555"/>
            <path data-name="패스 52" d="M306.828 21.756h5.323v3.456q1.59-3.455 5.96-3.456a8.672 8.672 0 0 1 2.283.278 8.36 8.36 0 0 1 1.808.716l-2.025 5.084a5.944 5.944 0 0 0-1.331-.654 5.753 5.753 0 0 0-1.886-.259 4.566 4.566 0 0 0-3.556 1.33 6.378 6.378 0 0 0-1.212 4.35v12.395h-5.363z"/>
            <path data-name="패스 53" d="M323.513 21.756h3.972v-3.535l5.4-3.694v7.229h4.727v4.808h-4.727v8.7a15.005 15.005 0 0 0 .159 2.443 2.256 2.256 0 0 0 2.086 2.086 15.239 15.239 0 0 0 2.482.159v5.046h-.754a18.044 18.044 0 0 1-4.509-.476 5.968 5.968 0 0 1-2.88-1.61 6.494 6.494 0 0 1-1.529-2.98 19.649 19.649 0 0 1-.458-4.627v-8.74h-3.972z"/>
            <path data-name="패스 54" d="M340.593 21.757h5.324v2.861a8.579 8.579 0 0 1 2.92-2.424 8.666 8.666 0 0 1 4.033-.912 8.811 8.811 0 0 1 6.773 2.62 10.314 10.314 0 0 1 2.442 7.31v13.786h-5.442v-13.23a6.454 6.454 0 0 0-1.312-4.271 4.834 4.834 0 0 0-3.931-1.569 5.176 5.176 0 0 0-3.875 1.629 6.493 6.493 0 0 0-1.569 4.688v12.753h-5.363z"/>
            <path data-name="패스 55" d="M377.102 45.472a12.987 12.987 0 0 1-5-.933 11.375 11.375 0 0 1-6.378-6.4 12.42 12.42 0 0 1-.892-4.708 12.19 12.19 0 0 1 .933-4.767 11.866 11.866 0 0 1 2.561-3.852 12.2 12.2 0 0 1 3.834-2.582 11.814 11.814 0 0 1 4.748-.954 12.615 12.615 0 0 1 4.786.893 11.155 11.155 0 0 1 3.794 2.5 11.575 11.575 0 0 1 2.483 3.794 12.45 12.45 0 0 1 .893 4.767v2.025h-18.91a6.892 6.892 0 0 0 2.423 3.972 7.281 7.281 0 0 0 4.729 1.51 6.785 6.785 0 0 0 6.431-4.083l4.41 2.544a11.681 11.681 0 0 1-10.845 6.276m-.2-19.465a6.833 6.833 0 0 0-4.191 1.311 6.919 6.919 0 0 0-2.484 3.456h13.19a5.982 5.982 0 0 0-2.3-3.556 7.1 7.1 0 0 0-4.212-1.212"/>
            <path data-name="패스 56" d="M391.642 21.756h5.323v3.456q1.59-3.455 5.96-3.456a8.672 8.672 0 0 1 2.283.278 8.361 8.361 0 0 1 1.807.716l-2.025 5.084a5.945 5.945 0 0 0-1.331-.654 5.753 5.753 0 0 0-1.886-.259 4.566 4.566 0 0 0-3.556 1.33 6.379 6.379 0 0 0-1.211 4.35v12.395h-5.363z"/>
        </g>
    </g>
</svg>
