<svg xmlns="http://www.w3.org/2000/svg" width="248.105" height="38" viewBox="0 0 248.105 38">
    <defs>
        <clipPath id="h7v84bk0na">
            <path data-name="사각형 26" style="fill:none" d="M0 0h248.105v38H0z"/>
        </clipPath>
    </defs>
    <g data-name="그룹 60">
        <g data-name="그룹 59" style="clip-path:url(#h7v84bk0na)">
            <path data-name="패스 48" d="M9.428 10.273a4.406 4.406 0 0 1-.036-1.863 2.924 2.924 0 0 1 3.246-2.39 3.031 3.031 0 0 1 3.3 3.221v2.2h8.847V8.945C24.781 1.23 17.825 0 12.81 0 6.51 0 1.362 2.091.42 7.883a12.253 12.253 0 0 0 .071 4.781c1.535 7.251 14.141 9.348 15.975 13.936a4.578 4.578 0 0 1 .069 2.619c-.291 1.192-1.091 2.4-3.464 2.4-2.216 0-3.541-1.291-3.541-3.23l-.012-3.413H0v2.712C0 35.615 6.228 38 12.894 38c6.408 0 11.671-2.184 12.53-8.12a17.628 17.628 0 0 0-.037-5.806c-1.5-7.444-14.949-9.649-15.959-13.8m115.35.087a4.758 4.758 0 0 1-.031-1.834 2.908 2.908 0 0 1 3.214-2.374 2.994 2.994 0 0 1 3.25 3.194v2.169h8.744V9.044C139.956 1.4 133.1.2 128.144.2c-6.248 0-11.35 2.059-12.282 7.81a11.842 11.842 0 0 0 .085 4.727c1.519 7.17 14 9.25 15.813 13.784a4.793 4.793 0 0 1 .065 2.6c-.271 1.18-1.065 2.367-3.419 2.367-2.208 0-3.536-1.269-3.536-3.181v-3.4h-9.412v2.706c0 7.84 6.141 10.206 12.755 10.206 6.335 0 11.567-2.165 12.406-8.033a17.277 17.277 0 0 0-.062-5.75c-1.467-7.354-14.77-9.566-15.777-13.671m80.539 19.326L196.964 1.13H183.8v35.1h8.707L192 6.759l8.97 29.47h12.63V1.13h-8.764zM37.973 1.13 31.4 36.6h9.581l4.954-32.836L50.767 36.6h9.515L53.739 1.13zm53.574 0-4.475 27.725L82.6 1.13H68.13l-.767 35.47h8.865l.24-32.834 6.1 32.834h8.994l6.1-32.834.244 32.834h8.887L106 1.13zm82.421 0H165v26.239a6.239 6.239 0 0 1-.079 1.348 3.526 3.526 0 0 1-6.791 0 5.734 5.734 0 0 1-.09-1.348V1.13h-8.97v25.425c-.011.655.04 1.994.079 2.345.619 6.625 5.841 8.776 12.361 8.776s11.751-2.151 12.382-8.776a18.533 18.533 0 0 0 .076-2.345zm61.591 15.56v5.173h3.635V27a6.479 6.479 0 0 1-.092 1.349c-.144.957-1.054 2.587-3.634 2.587-2.565 0-3.458-1.63-3.613-2.587a8.8 8.8 0 0 1-.094-1.349V10.785a7.259 7.259 0 0 1 .16-1.676 3.256 3.256 0 0 1 3.526-2.568c2.713 0 3.39 1.8 3.546 2.568a9.4 9.4 0 0 1 .108 1.368v1.968h8.933v-1.163a21.134 21.134 0 0 0-.068-2.347c-.671-6.654-6.153-8.759-12.439-8.759S223.858 2.3 223.076 8.934c-.071.607-.179 1.7-.179 2.347v14.913a20.274 20.274 0 0 0 .141 2.339C223.622 35 229.229 37.3 235.5 37.3c6.311 0 11.88-2.294 12.473-8.764.105-1.187.116-1.69.13-2.339v-9.5z" style="fill:#1428a0"/>
        </g>
    </g>
</svg>
