<svg xmlns="http://www.w3.org/2000/svg" xmlns:xlink="http://www.w3.org/1999/xlink" width="50" height="49" viewBox="0 0 50 49">
  <defs>
    <style>
      .cls-1 {
        fill: #aaa;
      }

      .cls-2 {
        clip-path: url(#clip-path);
      }
    </style>
    <clipPath id="clip-path">
      <path id="패스_75" data-name="패스 75" class="cls-1" d="M276.382,209.687a2.941,2.941,0,1,0,2.941-2.952,2.947,2.947,0,0,0-2.941,2.952m11.176,0a2.941,2.941,0,1,0,2.941-2.952,2.947,2.947,0,0,0-2.941,2.952m11.177,0a2.941,2.941,0,1,0,2.941-2.952,2.947,2.947,0,0,0-2.941,2.952m-30.294,12.988V196.7a3.244,3.244,0,0,1,3.235-3.247h37.647a3.244,3.244,0,0,1,3.235,3.247v25.976a3.244,3.244,0,0,1-3.235,3.247H285.13a1.468,1.468,0,0,0-1.044.436l-8,8.085V227.4a1.473,1.473,0,0,0-1.471-1.476h-2.941a3.244,3.244,0,0,1-3.235-3.247m3.235-32.175a6.2,6.2,0,0,0-6.177,6.2v25.976a6.2,6.2,0,0,0,6.177,6.2h1.47v9.151a1.469,1.469,0,0,0,2.514,1.04l10.081-10.19h23.581a6.2,6.2,0,0,0,6.177-6.2V196.7a6.2,6.2,0,0,0-6.177-6.2Z" transform="translate(-265.5 -190.5)"/>
    </clipPath>
  </defs>
  <g id="그룹_125" data-name="그룹 125" transform="translate(-265.5 -190.5)">
    <g id="그룹_124" data-name="그룹 124" class="cls-2" transform="translate(265.5 190.5)">
      <rect id="사각형_42" data-name="사각형 42" class="cls-1" width="51.176" height="50.181" transform="translate(-0.588 -0.59)"/>
    </g>
  </g>
</svg>
