<svg xmlns="http://www.w3.org/2000/svg" width="32" height="40" viewBox="0 0 32 40">
    <defs>
        <clipPath id="00cse86spa">
            <path data-name="사각형 13" style="fill:none" d="M0 0h32v40H0z"/>
        </clipPath>
    </defs>
    <g data-name="그룹 21" style="clip-path:url(#00cse86spa)">
        <path data-name="패스 24" d="M30.693 40H1.307A1.312 1.312 0 0 1 0 38.682V1.318A1.312 1.312 0 0 1 1.307 0h19.42a1.318 1.318 0 0 1 0 2.636H2.614v34.728h26.772v-26a1.307 1.307 0 1 1 2.614 0v27.318A1.312 1.312 0 0 1 30.693 40"/>
        <path data-name="패스 25" d="M30.693 12.686h-9.966a1.312 1.312 0 0 1-1.307-1.318V1.318A1.318 1.318 0 0 1 20.227.1a1.3 1.3 0 0 1 1.425.286l9.965 10.05a1.327 1.327 0 0 1 .283 1.437 1.307 1.307 0 0 1-1.207.814m-8.659-2.637h5.5l-5.5-5.55z"/>
        <path data-name="패스 26" d="M14.086 28.13a1.3 1.3 0 0 1-.924-.386l-3.324-3.352a1.325 1.325 0 0 1 0-1.864 1.3 1.3 0 0 1 1.848 0l2.4 2.42 6.23-6.282a1.3 1.3 0 0 1 1.848 0 1.325 1.325 0 0 1 0 1.864l-7.154 7.214a1.3 1.3 0 0 1-.924.386"/>
    </g>
</svg>
