<svg xmlns="http://www.w3.org/2000/svg" width="14" height="14" viewBox="0 0 14 14">
    <defs>
        <clipPath id="iixhbybhwa">
            <path data-name="패스 71" d="m266.493 408.484 2.63 2.635-3.407.775zm.346-.8 7.966-7.967 3.089 3.089-7.969 7.97zm7.565-8.712-8.318 8.319-.027.028a1.071 1.071 0 0 0-.232.441l-1.008 4.425-.006.028a.5.5 0 0 0 .613.579l4.427-1.008.038-.01a1.073 1.073 0 0 0 .432-.249l8.317-8.318.023-.024a.568.568 0 0 0-.023-.778l-3.433-3.433-.024-.023a.568.568 0 0 0-.777.023" transform="translate(-264.805 -398.806)" style="fill:none"/>
        </clipPath>
    </defs>
    <g data-name="그룹 95">
        <g data-name="그룹 94" style="clip-path:url(#iixhbybhwa)">
            <path data-name="사각형 36" d="M-.218-.217h14.436v14.449H-.218z"/>
        </g>
    </g>
</svg>
