<svg xmlns="http://www.w3.org/2000/svg" width="50" height="50" viewBox="0 0 50 50">
    <defs>
        <clipPath id="vczstmwtra">
            <path data-name="패스 70" d="M270.715 815.507a2.217 2.217 0 0 0-2.215 2.214v45.54a2.217 2.217 0 0 0 2.215 2.214h45.57a2.217 2.217 0 0 0 2.215-2.214V840.49h-3.165v21.821h-43.67v-43.642H293.5v-3.162zm17.2 23.7 6.734 6.763-8.139 1.749zm1.568-2.011 18.84-18.945 7.128 7.16-18.841 18.943zm18.78-21.721a1.886 1.886 0 0 0-1.285.539l-20.613 20.726a3.567 3.567 0 0 0-.9 1.758l-1.653 10.019a1.688 1.688 0 0 0 .485 1.523 1.65 1.65 0 0 0 1.151.453 1.889 1.889 0 0 0 .4-.043l9.535-2.048a3.755 3.755 0 0 0 1.7-.927l.834-.84.047-.043 19.732-19.842a1.9 1.9 0 0 0 .543-1.516l-.015-.115a1.888 1.888 0 0 0-.53-1.05l-8.021-8.057a1.729 1.729 0 0 0-.279-.228l-.1-.062-.109-.058-.056-.025-.089-.037a2.345 2.345 0 0 0-.148-.05l-.035-.01a1.993 1.993 0 0 0-.467-.069z" transform="translate(-268.5 -815.474)" style="fill:#aaa"/>
        </clipPath>
    </defs>
    <g data-name="그룹 83">
        <g data-name="그룹 82" style="clip-path:url(#vczstmwtra)">
            <path data-name="사각형 32" transform="translate(-.633 -.633)" style="fill:#aaa" d="M0 0h51.266v51.266H0z"/>
        </g>
    </g>
</svg>
