<svg xmlns="http://www.w3.org/2000/svg" width="30" height="22" viewBox="0 0 30 22">
    <defs>
        <clipPath id="bkc9yodwda">
            <path data-name="사각형 46" style="fill:#8f8f8f" d="M0 0h30v22H0z"/>
        </clipPath>
    </defs>
    <g data-name="그룹 118">
        <g data-name="그룹 117" style="clip-path:url(#bkc9yodwda)">
            <path data-name="패스 73" d="M15 0a9.075 9.075 0 0 0-6.364 2.568A8.691 8.691 0 0 0 6.157 7.3 7.208 7.208 0 0 0 0 14.347a7.265 7.265 0 0 0 7.333 7.173h16.334a6.181 6.181 0 1 0 .271-12.36 8.66 8.66 0 0 0-2.583-6.593A9.053 9.053 0 0 0 15 0zm0 1.3a7.7 7.7 0 0 1 5.417 2.2A7.389 7.389 0 0 1 22.6 9.7a.643.643 0 0 0 .163.515.674.674 0 0 0 .5.219h.4a4.892 4.892 0 1 1 0 9.781H7.334A5.867 5.867 0 0 1 6.781 8.5a.66.66 0 0 0 .6-.571A7.384 7.384 0 0 1 9.573 3.5 7.73 7.73 0 0 1 15 1.3zm0 6.521a.731.731 0 0 0-.448.163l-3.667 3.26a.66.66 0 0 0-.052.927.709.709 0 0 0 .948.041l2.552-2.272v7.01a.667.667 0 0 0 1.333 0V9.945l2.552 2.272a.722.722 0 0 0 .948-.041.652.652 0 0 0-.052-.927l-3.667-3.26A.59.59 0 0 0 15 7.826z" transform="translate(0 .48)" style="fill:#8f8f8f"/>
        </g>
    </g>
</svg>
