<svg xmlns="http://www.w3.org/2000/svg" width="14" height="20" viewBox="0 0 14 20">
    <defs>
        <clipPath id="2oov5h05ma">
            <path data-name="패스 5" d="M117.75 473.186a5.256 5.256 0 0 1 10.5 0v1.075h-10.5zm-1.75 0v1.727a1.092 1.092 0 0 0 1.094 1.087h11.813a1.092 1.092 0 0 0 1.093-1.087v-1.727a7 7 0 0 0-14 0m3.938-12.4a3.063 3.063 0 1 1 3.062 3.04 3.056 3.056 0 0 1-3.062-3.043m-1.75 0A4.813 4.813 0 1 0 123 456a4.8 4.8 0 0 0-4.812 4.783" transform="translate(-116 -456)" style="fill:#fff"/>
        </clipPath>
    </defs>
    <g data-name="그룹 4">
        <g data-name="그룹 3" style="clip-path:url(#2oov5h05ma)">
            <path data-name="사각형 5" style="fill:#fff" d="M0 0h14.512v20.494H0z"/>
        </g>
    </g>
</svg>
