<svg data-name="그룹 59" xmlns="http://www.w3.org/2000/svg" width="16" height="14" viewBox="0 0 16 14">
    <defs>
        <clipPath id="cs9jojgmla">
            <path data-name="사각형 28" style="fill:none" d="M0 0h16v14H0z"/>
        </clipPath>
    </defs>
    <g data-name="그룹 58" style="clip-path:url(#cs9jojgmla)">
        <path data-name="패스 50" d="M3.888 14a4.767 4.767 0 0 0 3.257-1.525l7.961-7.709a3.077 3.077 0 0 0 .852-1.588 2.475 2.475 0 0 0-.8-2.311 2.713 2.713 0 0 0-2.352-.839 3.171 3.171 0 0 0-1.663.848l-8 7.741a2.1 2.1 0 0 0-.76 1.442 1.683 1.683 0 0 0 .583 1.216c.272.264 1.27 1.022 2.632-.291l7.984-7.7a.513.513 0 0 0 0-.743.558.558 0 0 0-.769 0l-7.983 7.7c-.7.675-.976.407-1.095.292a.708.708 0 0 1-.265-.474c0-.273.3-.561.442-.7l8-7.743a2.046 2.046 0 0 1 1.061-.552 1.648 1.648 0 0 1 1.414.544 1.483 1.483 0 0 1 .5 1.385 2.041 2.041 0 0 1-.551 1.029l-7.959 7.71c-1.085 1.048-2.732 1.96-4.405.344A2.286 2.286 0 0 1 1.2 9.593a4.391 4.391 0 0 1 1.172-1.726l6.946-6.678a.513.513 0 0 0 0-.743.558.558 0 0 0-.769 0L1.6 7.123A5.426 5.426 0 0 0 .162 9.28 3.283 3.283 0 0 0 1.2 12.818 3.837 3.837 0 0 0 3.889 14z"/>
    </g>
</svg>
