<svg xmlns="http://www.w3.org/2000/svg" width="43" height="40" viewBox="0 0 43 40">
    <defs>
        <clipPath id="g9fzkwxe6a">
            <path data-name="사각형 11" style="fill:none" d="M0 0h43v40H0z"/>
        </clipPath>
    </defs>
    <g data-name="그룹 17" style="clip-path:url(#g9fzkwxe6a)">
        <path data-name="패스 12" d="M29.812 0H1.417A1.406 1.406 0 0 0 0 1.393v37.214A1.406 1.406 0 0 0 1.417 40h28.395a1.406 1.406 0 0 0 1.417-1.393V26.834a6.943 6.943 0 0 1-1.814.24 6.869 6.869 0 0 1-1.02-.074v10.214H2.834V2.786h25.561v10.642a6.87 6.87 0 0 1 1.02-.072 6.943 6.943 0 0 1 1.814.24V1.393A1.406 1.406 0 0 0 29.812 0"/>
        <path data-name="패스 13" d="M31.228 10.737a9.712 9.712 0 0 0-1.814-.167q-.519 0-1.02.05a9.631 9.631 0 0 0 0 19.189q.5.05 1.02.05a9.859 9.859 0 0 0 7.861-3.884 9.487 9.487 0 0 0 1.95-5.761 9.708 9.708 0 0 0-8-9.478m0 16.1a6.943 6.943 0 0 1-1.814.24 6.859 6.859 0 1 1 0-13.718 6.845 6.845 0 0 1 1.814 13.478"/>
        <path data-name="패스 14" d="M41.587 33.572a1.426 1.426 0 0 1-1-.408l-5.875-5.776a1.376 1.376 0 0 1 0-1.97 1.434 1.434 0 0 1 2 0l5.875 5.776a1.377 1.377 0 0 1 0 1.97 1.426 1.426 0 0 1-1 .408"/>
    </g>
</svg>
