<svg xmlns="http://www.w3.org/2000/svg" width="105.143" height="16" viewBox="0 0 105.143 16">
    <defs>
        <clipPath id="uc8vjktsva">
            <path data-name="사각형 2" d="M0 0h105.143v16H0z"/>
        </clipPath>
    </defs>
    <g data-name="그룹 1" style="clip-path:url(#uc8vjktsva)">
        <path data-name="패스 1" d="M4 4.326a1.843 1.843 0 0 1-.015-.784 1.237 1.237 0 0 1 1.371-1.007 1.28 1.28 0 0 1 1.4 1.356v.924H10.5V3.766C10.5.518 7.554 0 5.429 0 2.759 0 .577.881.178 3.319a5.126 5.126 0 0 0 .03 2.013C.859 8.385 6.2 9.268 6.978 11.2a1.916 1.916 0 0 1 .029 1.1 1.3 1.3 0 0 1-1.468 1.009 1.336 1.336 0 0 1-1.5-1.36l-.005-1.437H0v1.142C0 15 2.639 16 5.464 16c2.716 0 4.946-.92 5.31-3.419a7.375 7.375 0 0 0-.016-2.445C10.124 7 4.423 6.074 4 4.326m48.884.037a1.991 1.991 0 0 1-.013-.772 1.231 1.231 0 0 1 1.362-1 1.265 1.265 0 0 1 1.377 1.345v.913h3.706V3.808c0-3.218-2.9-3.723-5.006-3.723-2.648 0-4.81.867-5.2 3.288a4.955 4.955 0 0 0 .036 1.99c.644 3.019 5.934 3.895 6.7 5.8a2.006 2.006 0 0 1 .028 1.095c-.115.5-.451 1-1.449 1a1.327 1.327 0 0 1-1.5-1.339v-1.434h-3.996v1.139c0 3.3 2.6 4.3 5.406 4.3 2.685 0 4.9-.911 5.258-3.382a7.228 7.228 0 0 0-.026-2.421c-.621-3.1-6.259-4.028-6.686-5.756M87.01 12.5 83.47.476h-5.578v14.778h3.69l-.214-12.408 3.8 12.408h5.35V.476h-3.713zM16.092.476 13.308 15.41h4.06l2.1-13.825 2.046 13.825h4.032L22.774.476zm22.7 0L36.9 12.15 35 .476h-6.128l-.325 14.934H32.3l.1-13.825 2.59 13.825h3.81l2.589-13.825.1 13.825h3.766L44.921.476zm34.929 0h-3.8v11.048a2.611 2.611 0 0 1-.033.567 1.5 1.5 0 0 1-2.878 0 2.4 2.4 0 0 1-.038-.567V.476h-3.8v10.705c0 .276.017.84.033.987.262 2.79 2.475 3.7 5.238 3.7s4.98-.906 5.247-3.7a7.752 7.752 0 0 0 .032-.987zm26.1 6.552v2.177h1.541v2.161a2.71 2.71 0 0 1-.039.568 1.627 1.627 0 0 1-3.071 0 3.684 3.684 0 0 1-.039-.568V4.541a3.037 3.037 0 0 1 .068-.706 1.579 1.579 0 0 1 3 0 3.934 3.934 0 0 1 .046.576v.829h3.785v-.49a8.841 8.841 0 0 0-.029-.988C104.8.96 102.476.074 99.813.074s-4.945.895-5.276 3.688c-.03.255-.076.715-.076.988v6.279a8.483 8.483 0 0 0 .06.985c.247 2.724 2.624 3.69 5.282 3.69 2.675 0 5.035-.966 5.286-3.69.045-.5.049-.711.055-.985v-4z"/>
    </g>
</svg>
