<svg xmlns="http://www.w3.org/2000/svg" width="100" height="100" viewBox="0 0 100 100">
    <defs>
        <clipPath id="dmm30ogr8a">
            <path data-name="사각형 68" style="fill:none" d="M0 0h23.846v36H0z"/>
        </clipPath>
    </defs>
    <g data-name="그룹 162">
        <text data-name="Event / Exhibition" transform="translate(50 24)" style="font-size:12px;font-family:SamsungOne-700,'SamsungOne \37 00';font-weight:700"><tspan x="-19.119" y="0">Event /</tspan><tspan x="-27.1" y="14">Exhibition</tspan></text>
        <g data-name="타원 4" style="stroke:#aaa;fill:none">
            <circle cx="50" cy="50" r="50" style="stroke:none"/>
            <circle cx="50" cy="50" r="49.5" style="fill:none"/>
        </g>
        <g data-name="그룹 155">
            <g data-name="그룹 154" style="clip-path:url(#dmm30ogr8a)" transform="translate(38 48)">
                <path data-name="패스 93" d="M23.3 36H.541A.541.541 0 0 1 0 35.459V2.744a.541.541 0 0 1 1.083 0A1.671 1.671 0 0 0 2.76 4.406H23.3a.541.541 0 0 1 .541.541v30.512A.541.541 0 0 1 23.3 36M1.083 34.917h21.68V5.489h-20a2.756 2.756 0 0 1-1.677-.566z"/>
                <path data-name="패스 94" d="M2.745 5.489a2.744 2.744 0 1 1 0-5.489H23.3a.541.541 0 0 1 0 1.083H2.745a1.661 1.661 0 1 0 0 3.323.541.541 0 0 1 0 1.083"/>
                <path data-name="패스 95" d="M3.168 18.263v-6.946a.223.223 0 0 1 .223-.224h1.236a2.124 2.124 0 0 1 0 4.246h-.588c-.09 0-.17.009-.249.009-.011.13-.011.249-.011.379v2.536a.303.303 0 1 1-.607 0m.607-3.8c0 .229-.049.279.279.279h.578a1.491 1.491 0 0 0 1.454-1.535 1.46 1.46 0 0 0-1.454-1.5h-.578a.779.779 0 0 0-.279.04z"/>
                <path data-name="패스 96" d="m9.302 11.309 2.385 6.858a.302.302 0 0 1-.569.2l-.438-1.253a3.7 3.7 0 0 0-.13-.349c-.149-.01-.3-.01-.448-.01h-2.2c-.15 0-.31 0-.459.01a3.456 3.456 0 0 0-.119.349l-.437 1.251a.3.3 0 0 1-.284.2h-.016a.3.3 0 0 1-.285-.4l2.386-6.858a.323.323 0 0 1 .609 0m-1.579 4.617-.06.19a.606.606 0 0 0 .2.03h2.282a.674.674 0 0 0 .209-.03l-.07-.19q-.6-1.763-1.215-3.528a1.122 1.122 0 0 0-.07-.189l-.01.009q-.627 1.855-1.265 3.707"/>
                <path data-name="패스 97" d="M12.686 17.343a.294.294 0 0 1 .293.129 1.358 1.358 0 0 0 1.179.577 1.468 1.468 0 0 0 1.428-1.436c0-.827-.648-1.245-1.486-1.594-.986-.408-1.824-.847-1.824-2.042a1.961 1.961 0 0 1 3.436-1.294.3.3 0 0 1-.1.462.292.292 0 0 1-.354-.071 1.331 1.331 0 0 0-1.014-.453 1.391 1.391 0 0 0-1.358 1.306 1.259 1.259 0 0 0 .667 1.176c.389.229 1.146.508 1.585.757a1.925 1.925 0 0 1 1.036 1.764 2.037 2.037 0 0 1-2.023 2.023 1.917 1.917 0 0 1-1.69-.854.3.3 0 0 1 .211-.448z"/>
                <path data-name="패스 98" d="M17.193 17.343a.291.291 0 0 1 .291.129 1.362 1.362 0 0 0 1.18.577 1.467 1.467 0 0 0 1.425-1.436c0-.827-.648-1.245-1.484-1.594-.986-.408-1.824-.847-1.824-2.042a1.961 1.961 0 0 1 3.436-1.294.3.3 0 0 1-.094.462.293.293 0 0 1-.355-.071 1.328 1.328 0 0 0-1.013-.453 1.391 1.391 0 0 0-1.366 1.306 1.261 1.261 0 0 0 .668 1.176c.389.229 1.147.508 1.585.757a1.925 1.925 0 0 1 1.037 1.764 2.038 2.038 0 0 1-2.024 2.023 1.917 1.917 0 0 1-1.691-.854.3.3 0 0 1 .211-.448z"/>
                <path data-name="패스 99" d="M16.178 24.132H7.666a.541.541 0 1 1 0-1.083h8.512a.541.541 0 0 1 0 1.083"/>
                <path data-name="패스 100" d="M16.178 31.373H7.666a.541.541 0 1 1 0-1.083h8.512a.541.541 0 0 1 0 1.083"/>
                <path data-name="패스 101" d="M11.922 33.389a6.178 6.178 0 1 1 6.179-6.178 6.185 6.185 0 0 1-6.179 6.178m0-11.273a5.095 5.095 0 1 0 5.1 5.095 5.1 5.1 0 0 0-5.1-5.095"/>
                <path data-name="패스 102" d="M11.922 33.389a.541.541 0 0 1-.541-.541V21.574a.542.542 0 0 1 1.083 0v11.273a.541.541 0 0 1-.542.541"/>
                <path data-name="패스 103" d="M17.56 27.752H6.286a.541.541 0 1 1 0-1.083H17.56a.541.541 0 1 1 0 1.083"/>
                <path data-name="패스 104" d="M23.301 3.286H5.221a.541.541 0 0 1 0-1.083h18.08a.541.541 0 1 1 0 1.083"/>
            </g>
        </g>
    </g>
</svg>
