<svg xmlns="http://www.w3.org/2000/svg" width="100" height="100" viewBox="0 0 100 100">
    <defs>
        <clipPath id="tojcmt0i4a">
            <path data-name="사각형 69" style="fill:none" d="M0 0h31.351v30.611H0z"/>
        </clipPath>
    </defs>
    <g data-name="그룹 163">
        <text data-name="Internal Branding" transform="translate(50 24)" style="font-size:12px;font-family:SamsungOne-700,'SamsungOne \37 00';font-weight:700"><tspan x="-21.404" y="0">Internal</tspan><tspan x="-24.492" y="14">Branding</tspan></text>
        <g data-name="타원 5" style="stroke:#aaa;fill:none">
            <circle cx="50" cy="50" r="50" style="stroke:none"/>
            <circle cx="50" cy="50" r="49.5" style="fill:none"/>
        </g>
        <g data-name="그룹 157">
            <g data-name="그룹 156" style="clip-path:url(#tojcmt0i4a)" transform="translate(34 50.389)">
                <path data-name="패스 105" d="M27.849 28.409h-3.191a.457.457 0 0 1 0-.913h3.192a2.591 2.591 0 0 0 2.588-2.588V13.134a2.591 2.591 0 0 0-2.588-2.588H3.5a2.591 2.591 0 0 0-2.587 2.588v11.774A2.591 2.591 0 0 0 3.5 27.496h2.865a.457.457 0 1 1 0 .913H3.5a3.505 3.505 0 0 1-3.5-3.5V13.134a3.505 3.505 0 0 1 3.5-3.5h24.349a3.505 3.505 0 0 1 3.5 3.5v11.774a3.505 3.505 0 0 1-3.5 3.5"/>
                <path data-name="패스 106" d="M26.819 24.183h-2.162a.457.457 0 0 1 0-.913h2.162c.764 0 1.409-.412 1.409-.9v-.936c0-.488-.645-.9-1.409-.9H3.956c-.764 0-1.41.412-1.41.9v.936c0 .488.645.9 1.41.9h2.409a.457.457 0 1 1 0 .913H3.956a2.092 2.092 0 0 1-2.323-1.813v-.936a2.092 2.092 0 0 1 2.323-1.813h22.863a2.093 2.093 0 0 1 2.323 1.813v.936a2.093 2.093 0 0 1-2.323 1.813"/>
                <path data-name="패스 107" d="M27.999 10.547H3.295a.457.457 0 0 1-.457-.46v-1.87a.457.457 0 0 1 .457-.457h24.7a.457.457 0 0 1 .457.457v1.87a.457.457 0 0 1-.457.457M3.747 9.631h23.798v-.957H3.751z"/>
                <path data-name="패스 108" d="M24.657 8.676H6.365a.456.456 0 0 1-.457-.456V.457A.457.457 0 0 1 6.365 0h18.292a.457.457 0 0 1 .457.457v7.762a.456.456 0 0 1-.457.456M6.821 7.763h17.38V.913H6.821z"/>
                <path data-name="패스 109" d="M24.657 30.615H6.365a.457.457 0 0 1-.457-.457V20.079a.457.457 0 0 1 .457-.457h18.292a.457.457 0 0 1 .457.457v10.076a.457.457 0 0 1-.457.457m-17.836-.913h17.38v-9.164H6.821z"/>
                <path data-name="패스 110" d="M21.689 23.376H9.264a.457.457 0 0 1 0-.913h12.425a.457.457 0 0 1 0 .913"/>
                <path data-name="패스 111" d="M21.689 4.239H9.264a.457.457 0 0 1 0-.913h12.425a.457.457 0 1 1 0 .913"/>
                <path data-name="패스 112" d="M11.899 25.573h-.452a.457.457 0 1 1 0-.913h.452a.457.457 0 1 1 0 .913"/>
                <path data-name="패스 113" d="M17.06 25.573h-.737a.457.457 0 1 1 0-.913h.737a.457.457 0 0 1 0 .913m-2.58 0h-.737a.457.457 0 1 1 0-.913h.737a.457.457 0 1 1 0 .913"/>
                <path data-name="패스 114" d="M19.354 25.573h-.452a.457.457 0 1 1 0-.913h.452a.457.457 0 0 1 0 .913"/>
                <path data-name="패스 115" d="M23.385 15.762a2.151 2.151 0 1 1 2.151-2.151 2.154 2.154 0 0 1-2.151 2.151m0-3.39a1.238 1.238 0 1 0 1.238 1.238 1.24 1.24 0 0 0-1.238-1.238"/>
            </g>
        </g>
    </g>
</svg>
