<svg xmlns="http://www.w3.org/2000/svg" width="100" height="100" viewBox="0 0 100 100">
    <defs>
        <clipPath id="vrzkg8knza">
            <path data-name="사각형 66" style="fill:none" d="M0 0h28.22v35.585H0z"/>
        </clipPath>
    </defs>
    <g data-name="그룹 160">
        <text transform="translate(40 32)" style="font-size:12px;font-family:SamsungOne-700,'SamsungOne \37 00';font-weight:700"><tspan x="0" y="0">Ads</tspan></text>
        <g data-name="타원 2" style="stroke:#aaa;fill:none">
            <circle cx="50" cy="50" r="50" style="stroke:none"/>
            <circle cx="50" cy="50" r="49.5" style="fill:none"/>
        </g>
        <g data-name="그룹 151">
            <g data-name="그룹 150" style="clip-path:url(#vrzkg8knza)" transform="translate(36 46.415)">
                <path data-name="패스 75" d="M.518 35.21A.518.518 0 0 1 0 34.692V1.032a.518.518 0 1 1 1.037 0v33.66a.518.518 0 0 1-.518.518"/>
                <path data-name="패스 76" d="M27.702 35.21a.518.518 0 0 1-.518-.518V1.032a.518.518 0 1 1 1.036 0v33.66a.518.518 0 0 1-.518.518"/>
                <path data-name="패스 77" d="M5.819 35.584a.518.518 0 0 1-.518-.518v-.513a.518.518 0 0 1 1.037 0v.513a.518.518 0 0 1-.518.518"/>
                <path data-name="패스 78" d="M5.819 32.608a.518.518 0 0 1-.518-.518v-.991a.518.518 0 0 1 1.037 0v.986a.518.518 0 0 1-.518.518m0-3.451a.518.518 0 0 1-.518-.518v-.986a.518.518 0 0 1 1.037 0v.986a.518.518 0 0 1-.518.518m0-3.451a.518.518 0 0 1-.518-.518v-.984a.518.518 0 1 1 1.037 0v.986a.518.518 0 0 1-.518.518m0-3.451a.518.518 0 0 1-.518-.518v-.986a.518.518 0 1 1 1.037 0v.986a.518.518 0 0 1-.518.518m0-3.451a.518.518 0 0 1-.518-.518v-.984a.518.518 0 1 1 1.037 0v.986a.518.518 0 0 1-.518.518m0-3.451a.518.518 0 0 1-.518-.518v-.985a.518.518 0 1 1 1.037 0v.986a.518.518 0 0 1-.518.518m0-3.451a.518.518 0 0 1-.518-.518v-.985a.518.518 0 1 1 1.037 0v.986a.518.518 0 0 1-.518.518m0-3.451a.518.518 0 0 1-.518-.518v-.986a.518.518 0 0 1 1.037 0v.986a.518.518 0 0 1-.518.518m0-3.451a.518.518 0 0 1-.518-.518v-.984a.518.518 0 0 1 1.037 0v.986a.518.518 0 0 1-.518.518"/>
                <path data-name="패스 79" d="M5.819 1.549a.518.518 0 0 1-.518-.518V.518a.518.518 0 0 1 1.037 0v.513a.518.518 0 0 1-.518.518"/>
                <path data-name="패스 80" d="M22.573 35.584a.518.518 0 0 1-.518-.518v-.513a.518.518 0 1 1 1.036 0v.513a.518.518 0 0 1-.518.518"/>
                <path data-name="패스 81" d="M22.573 32.608a.518.518 0 0 1-.518-.518v-.991a.518.518 0 1 1 1.036 0v.986a.518.518 0 0 1-.518.518m0-3.451a.518.518 0 0 1-.518-.518v-.986a.518.518 0 1 1 1.036 0v.986a.518.518 0 0 1-.518.518m0-3.451a.518.518 0 0 1-.518-.518v-.984a.518.518 0 1 1 1.036 0v.986a.518.518 0 0 1-.518.518m0-3.451a.518.518 0 0 1-.518-.518v-.986a.518.518 0 1 1 1.036 0v.986a.518.518 0 0 1-.518.518m0-3.451a.518.518 0 0 1-.518-.518v-.984a.518.518 0 1 1 1.036 0v.986a.518.518 0 0 1-.518.518m0-3.451a.518.518 0 0 1-.518-.518v-.985a.518.518 0 1 1 1.036 0v.986a.518.518 0 0 1-.518.518m0-3.451a.518.518 0 0 1-.518-.518v-.985a.518.518 0 1 1 1.036 0v.986a.518.518 0 0 1-.518.518m0-3.451a.518.518 0 0 1-.518-.518v-.986a.518.518 0 1 1 1.036 0v.986a.518.518 0 0 1-.518.518m0-3.451a.518.518 0 0 1-.518-.518v-.984a.518.518 0 1 1 1.036 0v.986a.518.518 0 0 1-.518.518"/>
                <path data-name="패스 82" d="M22.573 1.549a.518.518 0 0 1-.518-.518V.518a.518.518 0 1 1 1.036 0v.513a.518.518 0 0 1-.518.518"/>
                <path data-name="패스 83" d="M10.865 22.988a.519.519 0 0 1-.518-.518v-9.862a.518.518 0 0 1 .777-.449l8.541 4.931a.518.518 0 0 1 0 .9l-8.541 4.931a.519.519 0 0 1-.259.069m.518-9.482v8.066l6.986-4.033z"/>
                <path data-name="패스 84" d="M22.574 7.791H5.819a.518.518 0 0 1 0-1.037h16.755a.518.518 0 1 1 0 1.037"/>
                <path data-name="패스 85" d="M22.574 28.563H5.819a.518.518 0 0 1 0-1.037h16.755a.518.518 0 0 1 0 1.037"/>
            </g>
        </g>
    </g>
</svg>
