<svg xmlns="http://www.w3.org/2000/svg" width="100" height="100" viewBox="0 0 100 100">
    <defs>
        <clipPath id="gzbqjor7ma">
            <path data-name="사각형 70" style="fill:none" d="M0 0h32.653v36H0z"/>
        </clipPath>
    </defs>
    <g data-name="그룹 164">
        <text transform="translate(24 32)" style="font-size:12px;font-family:SamsungOne-700,'SamsungOne \37 00';font-weight:700"><tspan x="0" y="0">Collateral</tspan></text>
        <g data-name="타원 6" style="stroke:#aaa;fill:none">
            <circle cx="50" cy="50" r="50" style="stroke:none"/>
            <circle cx="50" cy="50" r="49.5" style="fill:none"/>
        </g>
        <g data-name="그룹 159">
            <g data-name="그룹 158" style="clip-path:url(#gzbqjor7ma)" transform="translate(34 46)">
                <path data-name="패스 116" d="M32.102 7.3h-6.2a.55.55 0 0 1-.55-.55V2.916a.55.55 0 0 1 1.1 0V6.2h4.317L25.516.94a.55.55 0 0 1 .779-.778l6.2 6.2a.55.55 0 0 1-.389.94"/>
                <path data-name="패스 117" d="M29.192 35.997H9.729a.551.551 0 0 1 0-1.1h19.538a2.342 2.342 0 0 0 2.285-2.357V6.974l-5.874-5.877H8.07a1.152 1.152 0 0 0-1.151 1.155V32.54a3.46 3.46 0 1 1-6.919 0V17.497a2.072 2.072 0 0 1 .618-1.469 2.032 2.032 0 0 1 1.424-.574 2.016 2.016 0 0 1 1.968 2v9.409a.551.551 0 0 1-1.1 0v-9.281a.573.573 0 0 1 0-.061v-.042a.911.911 0 0 0-.885-.924.828.828 0 0 0-.632.259.965.965 0 0 0-.293.683v15.042a2.358 2.358 0 1 0 4.717 0V2.252A2.255 2.255 0 0 1 8.07-.003h17.836a.551.551 0 0 1 .394.164l6.2 6.2a.55.55 0 0 1 .161.389v25.79a3.439 3.439 0 0 1-3.38 3.457h-.088"/>
                <path data-name="패스 118" d="M27.239 10.022a.553.553 0 0 1-.391-.158.558.558 0 0 1 0-.78.562.562 0 0 1 .6-.12.555.555 0 0 1 .34.508.509.509 0 0 1-.042.21.521.521 0 0 1-.12.181.555.555 0 0 1-.178.12.6.6 0 0 1-.21.039"/>
                <path data-name="패스 119" d="M24.774 9.473a.552.552 0 1 1 .553.55.552.552 0 0 1-.553-.55m-1.911 0a.552.552 0 1 1 .55.55.55.55 0 0 1-.55-.55m-1.911 0a.551.551 0 1 1 .55.55.549.549 0 0 1-.55-.55m-1.911 0a.551.551 0 1 1 .55.55.549.549 0 0 1-.55-.55m-1.911 0a.55.55 0 1 1 .55.55.549.549 0 0 1-.55-.55m-1.911 0a.55.55 0 1 1 .55.55.549.549 0 0 1-.55-.55m-1.911 0a.55.55 0 1 1 .55.55.549.549 0 0 1-.55-.55"/>
                <path data-name="패스 120" d="M11.943 10.022a.549.549 0 0 1-.388-.933.562.562 0 0 1 .776 0 .535.535 0 0 1 .162.388.51.51 0 0 1-.042.21.521.521 0 0 1-.12.181.545.545 0 0 1-.388.158"/>
                <path data-name="패스 121" d="M27.239 15.996a.552.552 0 0 1-.391-.162.546.546 0 0 1-.159-.388.564.564 0 0 1 .039-.21.55.55 0 0 1 .9-.181.52.52 0 0 1 .12.181.51.51 0 0 1 .042.21.552.552 0 0 1-.55.55"/>
                <path data-name="패스 122" d="M24.774 15.446a.552.552 0 1 1 .55.55.552.552 0 0 1-.55-.55m-1.911 0a.552.552 0 1 1 .55.55.55.55 0 0 1-.55-.55m-1.911 0a.55.55 0 1 1 .55.55.549.549 0 0 1-.55-.55m-1.911 0a.55.55 0 1 1 .55.55.549.549 0 0 1-.55-.55m-1.911 0a.55.55 0 1 1 .55.55.549.549 0 0 1-.55-.55m-1.911 0a.55.55 0 1 1 .55.55.549.549 0 0 1-.55-.55m-1.911 0a.55.55 0 1 1 .55.55.549.549 0 0 1-.55-.55"/>
                <path data-name="패스 123" d="M11.943 15.997a.508.508 0 0 1-.21-.042.557.557 0 0 1-.178-.12.549.549 0 0 1-.162-.388.51.51 0 0 1 .042-.21.52.52 0 0 1 .12-.181.546.546 0 0 1 .776 0 .542.542 0 0 1 .162.391.534.534 0 0 1-.042.21.541.541 0 0 1-.12.178.555.555 0 0 1-.178.12.509.509 0 0 1-.21.042"/>
                <path data-name="패스 124" d="M27.238 21.967a.552.552 0 0 1-.553-.55.579.579 0 0 1 .042-.21.552.552 0 0 1 .9-.178.507.507 0 0 1 .12.178.52.52 0 0 1 .042.21.543.543 0 0 1-.162.388.534.534 0 0 1-.388.162"/>
                <path data-name="패스 125" d="M24.774 21.417a.552.552 0 1 1 .553.55.552.552 0 0 1-.553-.55m-1.911 0a.552.552 0 1 1 .553.55.55.55 0 0 1-.553-.55m-1.911 0a.551.551 0 1 1 .55.55.549.549 0 0 1-.55-.55m-1.911 0a.55.55 0 1 1 .55.55.549.549 0 0 1-.55-.55m-1.911 0a.55.55 0 1 1 .55.55.549.549 0 0 1-.55-.55m-1.911 0a.55.55 0 1 1 .55.55.549.549 0 0 1-.55-.55m-1.911 0a.55.55 0 1 1 .55.55.549.549 0 0 1-.55-.55"/>
                <path data-name="패스 126" d="M11.943 21.967a.547.547 0 0 1-.388-.162.543.543 0 0 1-.162-.388.521.521 0 0 1 .042-.21.508.508 0 0 1 .12-.178.557.557 0 0 1 .776 0 .543.543 0 0 1 .162.388.546.546 0 0 1-.162.388.529.529 0 0 1-.388.162"/>
                <path data-name="패스 127" d="M27.239 27.94a.556.556 0 0 1-.391-.162.527.527 0 0 1-.159-.388.547.547 0 0 1 .159-.391.567.567 0 0 1 .779 0 .55.55 0 0 1 .162.391.531.531 0 0 1-.042.211.59.59 0 0 1-.12.178.548.548 0 0 1-.388.162"/>
                <path data-name="패스 128" d="M24.774 27.39a.552.552 0 1 1 .553.55.553.553 0 0 1-.553-.55m-1.911 0a.552.552 0 1 1 .55.55.55.55 0 0 1-.55-.55m-1.911 0a.551.551 0 1 1 .55.55.55.55 0 0 1-.55-.55m-1.911 0a.55.55 0 1 1 .55.55.55.55 0 0 1-.55-.55m-1.911 0a.55.55 0 1 1 .55.55.55.55 0 0 1-.55-.55m-1.911 0a.55.55 0 1 1 .55.55.55.55 0 0 1-.55-.55m-1.911 0a.55.55 0 1 1 .55.55.55.55 0 0 1-.55-.55"/>
                <path data-name="패스 129" d="M11.943 27.941a.577.577 0 0 1-.21-.042.552.552 0 0 1-.178-.12.537.537 0 0 1-.12-.178.531.531 0 0 1-.042-.21.555.555 0 0 1 .34-.511.561.561 0 0 1 .6.12.551.551 0 0 1-.388.941"/>
            </g>
        </g>
    </g>
</svg>
